<svg width="38" height="38" viewBox="0 0 38 38" fill="none" xmlns="http://www.w3.org/2000/svg">
  <path
    d="M0 17.5101C0 8.26668 7.49325 0.773438 16.7366 0.773438V20.49C16.7366 29.7334 9.24339 37.2266 0 37.2266V17.5101Z"
    fill="#1976D2"
  />
  <path
    d="M19.1649 9.33159C19.1649 4.60506 22.9965 0.773438 27.7231 0.773438H28.7959C33.5224 0.773438 37.354 4.60506 37.354 9.33159C37.354 14.0581 33.5224 17.8898 28.7959 17.8898H27.7231C22.9965 17.8898 19.1649 14.0581 19.1649 9.33159Z"
    fill="#90CAF9"
  />
  <path
    d="M19.1649 28.6685C19.1649 23.942 22.9965 20.1104 27.7231 20.1104H28.7959C33.5224 20.1104 37.354 23.942 37.354 28.6685C37.354 33.395 33.5224 37.2267 28.7959 37.2267H27.7231C22.9965 37.2267 19.1649 33.395 19.1649 28.6685Z"
    fill="#42A5F5"
  />
</svg>
