<svg width="49" height="48" viewBox="0 0 49 48" fill="none" xmlns="http://www.w3.org/2000/svg">
  <g id="Instagram">
    <path
      id="Vector"
      d="M26.8633 1C29.4518 1.00428 30.7636 1.01799 31.897 1.05173L32.3435 1.06631C32.8592 1.08464 33.3679 1.10764 33.9814 1.13639C36.4289 1.24949 38.0985 1.63666 39.5648 2.20593C41.0808 2.79055 42.3613 3.58023 43.6397 4.85871C44.9162 6.13717 45.7061 7.42137 46.2926 8.93368C46.8598 10.3981 47.2471 12.0695 47.3621 14.5171C47.3895 15.1305 47.4116 15.6393 47.4297 16.155L47.4442 16.6015C47.4778 17.7348 47.4932 19.0468 47.498 21.6354L47.4999 23.3503C47.5001 23.5598 47.5001 23.7761 47.5001 23.9992L47.4999 24.648L47.4985 26.3632C47.4941 28.9517 47.4806 30.2637 47.4468 31.3969L47.432 31.8434C47.4139 32.3593 47.3909 32.8681 47.3621 33.4813C47.2489 35.929 46.8598 37.5984 46.2926 39.0647C45.7079 40.5809 44.9162 41.8614 43.6397 43.1398C42.3613 44.4163 41.0751 45.2059 39.5648 45.7925C38.0985 46.3599 36.4289 46.747 33.9814 46.862C33.3679 46.8894 32.8592 46.9117 32.3435 46.9296L31.897 46.9441C30.7636 46.9779 29.4518 46.9931 26.8633 46.9982L25.1481 47C24.9386 47 24.7224 47 24.4993 47H23.8504L22.1353 46.9984C19.5467 46.9943 18.2348 46.9805 17.1014 46.9466L16.655 46.9322C16.1393 46.9137 15.6305 46.8908 15.0171 46.862C12.5695 46.7491 10.9019 46.3599 9.43368 45.7925C7.91944 45.208 6.63715 44.4163 5.35869 43.1398C4.08023 41.8614 3.29246 40.5752 2.70593 39.0647C2.13666 37.5984 1.7514 35.929 1.6364 33.4813C1.60907 32.8681 1.58678 32.3593 1.56873 31.8434L1.55426 31.3969C1.52061 30.2637 1.50527 28.9517 1.5003 26.3632L1.5 21.6354C1.50428 19.0468 1.51796 17.7348 1.55171 16.6015L1.56631 16.155C1.58464 15.6393 1.60764 15.1305 1.6364 14.5171C1.74947 12.0675 2.13666 10.4 2.70593 8.93368C3.29052 7.41947 4.08023 6.13717 5.35869 4.85871C6.63715 3.58023 7.92138 2.79246 9.43368 2.20593C10.9 1.63666 12.5675 1.2514 15.0171 1.13639C15.6305 1.10909 16.1393 1.08681 16.655 1.06875L17.1014 1.05428C18.2348 1.02061 19.5467 1.00527 22.1353 1.0003L26.8633 1ZM24.4993 12.4988C18.1443 12.4988 12.9988 17.6499 12.9988 23.9992C12.9988 30.3541 18.1499 35.4996 24.4993 35.4996C30.8542 35.4996 35.9997 30.3485 35.9997 23.9992C35.9997 17.6443 30.8484 12.4988 24.4993 12.4988ZM24.4993 17.099C28.3103 17.099 31.3995 20.1872 31.3995 23.9992C31.3995 27.8102 28.3112 30.8994 24.4993 30.8994C20.6883 30.8994 17.599 27.8113 17.599 23.9992C17.599 20.1882 20.6871 17.099 24.4993 17.099ZM36.5747 9.04868C34.9893 9.04868 33.6996 10.3365 33.6996 11.9218C33.6996 13.5072 34.9874 14.797 36.5747 14.797C38.1599 14.797 39.4498 13.5092 39.4498 11.9218C39.4498 10.3365 38.1579 9.04671 36.5747 9.04868Z"
      fill="#5E5E62"
    />
  </g>
</svg>
