<svg width="41" height="41" viewBox="0 0 41 41" fill="none" xmlns="http://www.w3.org/2000/svg">
  <g id="ph:instagram-logo-fill">
    <path
      id="Vector"
      d="M25.5 20.2268C25.5 21.2157 25.2068 22.1824 24.6573 23.0047C24.1079 23.8269 23.327 24.4678 22.4134 24.8462C21.4998 25.2246 20.4945 25.3237 19.5245 25.1307C18.5546 24.9378 17.6637 24.4616 16.9645 23.7623C16.2652 23.0631 15.789 22.1722 15.5961 21.2023C15.4031 20.2324 15.5022 19.227 15.8806 18.3134C16.259 17.3998 16.8999 16.6189 17.7221 16.0695C18.5444 15.5201 19.5111 15.2268 20.5 15.2268C21.8248 15.2309 23.0942 15.759 24.031 16.6958C24.9678 17.6326 25.4959 18.902 25.5 20.2268ZM36.125 13.3518V27.1018C36.125 29.4225 35.2031 31.648 33.5622 33.289C31.9212 34.9299 29.6956 35.8518 27.375 35.8518H13.625C11.3044 35.8518 9.07876 34.9299 7.43782 33.289C5.79687 31.648 4.875 29.4225 4.875 27.1018V13.3518C4.875 11.0312 5.79687 8.80557 7.43782 7.16462C9.07876 5.52368 11.3044 4.60181 13.625 4.60181H27.375C29.6956 4.60181 31.9212 5.52368 33.5622 7.16462C35.2031 8.80557 36.125 11.0312 36.125 13.3518ZM28 20.2268C28 18.7434 27.5601 17.2934 26.736 16.06C25.9119 14.8267 24.7406 13.8654 23.3701 13.2977C21.9997 12.7301 20.4917 12.5815 19.0368 12.8709C17.582 13.1603 16.2456 13.8746 15.1967 14.9235C14.1478 15.9724 13.4335 17.3088 13.1441 18.7636C12.8547 20.2185 13.0032 21.7265 13.5709 23.0969C14.1386 24.4674 15.0999 25.6387 16.3332 26.4628C17.5666 27.2869 19.0166 27.7268 20.5 27.7268C22.4891 27.7268 24.3968 26.9366 25.8033 25.5301C27.2098 24.1236 28 22.2159 28 20.2268ZM30.5 12.1018C30.5 11.731 30.39 11.3685 30.184 11.0601C29.978 10.7518 29.6851 10.5114 29.3425 10.3695C28.9999 10.2276 28.6229 10.1905 28.2592 10.2628C27.8955 10.3352 27.5614 10.5138 27.2992 10.776C27.037 11.0382 26.8584 11.3723 26.786 11.736C26.7137 12.0997 26.7508 12.4767 26.8927 12.8193C27.0346 13.1619 27.275 13.4548 27.5833 13.6608C27.8916 13.8668 28.2542 13.9768 28.625 13.9768C29.1223 13.9768 29.5992 13.7793 29.9508 13.4276C30.3025 13.076 30.5 12.5991 30.5 12.1018Z"
      fill="#FDFBFF"
    />
  </g>
</svg>
