<svg width="41" height="41" viewBox="0 0 41 41" fill="none" xmlns="http://www.w3.org/2000/svg">
  <g id="entypo-social:linkedin-with-circle">
    <path
      id="Vector"
      d="M20.4999 3.65088C11.3452 3.65088 3.92407 11.072 3.92407 20.2267C3.92407 29.3814 11.3452 36.8026 20.4999 36.8026C29.6546 36.8026 37.0758 29.3814 37.0758 20.2267C37.0758 11.072 29.6546 3.65088 20.4999 3.65088ZM16.4423 27.0971H13.0857V16.2951H16.4423V27.0971ZM14.7433 14.9691C13.6831 14.9691 12.9976 14.218 12.9976 13.289C12.9976 12.3411 13.7038 11.6125 14.7864 11.6125C15.869 11.6125 16.5321 12.3411 16.5528 13.289C16.5528 14.218 15.869 14.9691 14.7433 14.9691ZM28.7015 27.0971H25.3449V21.1108C25.3449 19.7174 24.858 18.7712 23.6441 18.7712C22.7169 18.7712 22.1661 19.4117 21.9227 20.0282C21.8329 20.2474 21.8104 20.5582 21.8104 20.8673V27.0953H18.4521V19.7398C18.4521 18.3913 18.4089 17.2638 18.364 16.2934H21.2804L21.434 17.7939H21.5014C21.9434 17.0894 23.026 16.05 24.8373 16.05C27.0457 16.05 28.7015 17.5297 28.7015 20.7102V27.0971Z"
      fill="#FDFBFF"
    />
  </g>
</svg>
