<svg width="49" height="48" viewBox="0 0 49 48" fill="none" xmlns="http://www.w3.org/2000/svg">
  <rect x="1" y="0.5" width="47" height="47" rx="23.5" fill="#5E5E62" />
  <rect x="1" y="0.5" width="47" height="47" rx="23.5" stroke="#5E5E62" />
  <g clip-path="url(#clip0_377_1006)">
    <path
      d="M39.5864 16.4176C39.4071 15.7516 39.0561 15.1444 38.5684 14.6568C38.0808 14.1691 37.4736 13.8181 36.8076 13.6388C34.3551 12.9751 24.5001 12.9751 24.5001 12.9751C24.5001 12.9751 14.6451 12.9751 12.1926 13.6388C11.5267 13.8181 10.9195 14.1691 10.4318 14.6568C9.94414 15.1444 9.59312 15.7516 9.41386 16.4176C8.95593 18.9188 8.7337 21.4574 8.75011 24.0001C8.7337 26.5428 8.95593 29.0814 9.41386 31.5826C9.59312 32.2486 9.94414 32.8557 10.4318 33.3434C10.9195 33.8311 11.5267 34.1821 12.1926 34.3613C14.6451 35.0251 24.5001 35.0251 24.5001 35.0251C24.5001 35.0251 34.3551 35.0251 36.8076 34.3613C37.4736 34.1821 38.0808 33.8311 38.5684 33.3434C39.0561 32.8557 39.4071 32.2486 39.5864 31.5826C40.0443 29.0814 40.2665 26.5428 40.2501 24.0001C40.2665 21.4574 40.0443 18.9188 39.5864 16.4176ZM21.3501 28.7251V19.2751L29.5289 24.0001L21.3501 28.7251Z"
      fill="#FDFBFF"
    />
  </g>
  <defs>
    <clipPath id="clip0_377_1006">
      <rect width="36" height="36" fill="white" transform="translate(6.5 6)" />
    </clipPath>
  </defs>
</svg>
