<svg width="24" height="24" viewBox="0 0 24 24" fill="none" xmlns="http://www.w3.org/2000/svg">
<path
    d="M14.8309 12L7.29816 4.46728C7.09944 4.26856 7.00264 4.03203 7.00776 3.75768C7.01289 3.48331 7.11482 3.24678 7.31354 3.04808C7.51225 2.84936 7.74879 2.75 8.02314 2.75C8.29749 2.75 8.53402 2.84936 8.73274 3.04808L16.3885 10.7192C16.5693 10.9 16.7033 11.1026 16.7904 11.3269C16.8776 11.5513 16.9212 11.7756 16.9212 12C16.9212 12.2243 16.8776 12.4487 16.7904 12.6731C16.7033 12.8974 16.5693 13.1 16.3885 13.2807L8.71736 20.9519C8.51864 21.1506 8.28467 21.2474 8.01544 21.2423C7.74622 21.2371 7.51225 21.1352 7.31354 20.9365C7.11482 20.7378 7.01546 20.5013 7.01546 20.2269C7.01546 19.9526 7.11482 19.716 7.31354 19.5173L14.8309 12Z"
    fill="{{fill|default(currentColor)}}"
  />
</svg>
