<svg width="37" height="36" viewBox="0 0 37 36" fill="none" xmlns="http://www.w3.org/2000/svg">
<g clip-path="url(#clip0_377_1252)">
<path
      d="M29.7441 20.9746L32.6931 26.0836C32.8145 26.294 32.883 26.5306 32.8928 26.7733C32.9026 27.0159 32.8534 27.2573 32.7494 27.4768C32.6455 27.6963 32.4898 27.8872 32.2958 28.0333C32.1018 28.1794 31.8753 28.2763 31.6356 28.3156L31.4661 28.3321L31.2981 28.3306L26.8986 28.0456L24.9441 31.9996C24.838 32.2137 24.6823 32.3994 24.49 32.5412C24.2977 32.6831 24.0743 32.777 23.8384 32.8151C23.6026 32.8532 23.361 32.8345 23.1338 32.7605C22.9066 32.6865 22.7003 32.5594 22.5321 32.3896L22.4091 32.2486L22.3011 32.0836L19.3491 26.9731C21.4272 26.8432 23.447 26.2341 25.2504 25.1934C27.0538 24.1528 28.5918 22.7088 29.7441 20.9746Z"
      fill="#42A5F5"
    />
<path
      d="M17.6449 26.9729L14.6959 32.0849C14.5764 32.292 14.4092 32.4676 14.2081 32.597C14.0071 32.7264 13.778 32.806 13.54 32.829C13.302 32.852 13.062 32.8179 12.8399 32.7294C12.6177 32.641 12.4199 32.5007 12.2629 32.3204L12.1489 32.1704L12.0529 31.9994L10.0969 28.0469L5.70042 28.3319C5.45824 28.3475 5.2159 28.3041 4.99414 28.2055C4.77238 28.107 4.57783 27.9561 4.42713 27.7659C4.27643 27.5757 4.17408 27.3518 4.12885 27.1134C4.08362 26.8749 4.09685 26.6291 4.16742 26.3969L4.22742 26.2364L4.30242 26.0864L7.25442 20.9729C8.40593 22.7071 9.94313 24.1513 11.7457 25.1924C13.5483 26.2336 15.5674 26.842 17.6449 26.9729Z"
      fill="#42A5F5"
    />
<path
      d="M18.5 3L18.86 3.006C21.5809 3.09934 24.1591 4.24584 26.0509 6.20366C27.9427 8.16147 29 10.7775 29 13.5L28.9955 13.7895L28.985 14.0775L28.958 14.445L28.919 14.808L28.883 15.075C28.7843 15.7225 28.6251 16.3593 28.4075 16.977L28.2335 17.439L28.004 17.961C27.1548 19.77 25.8071 21.2991 24.1191 22.3688C22.4312 23.4385 20.473 24.0044 18.4746 24C16.4762 23.9956 14.5206 23.4211 12.8374 22.3439C11.1541 21.2668 9.81319 19.7317 8.972 17.919L8.777 17.4735L8.699 17.274L8.579 16.9485L8.4365 16.5075C8.3856 16.3367 8.33909 16.1647 8.297 15.9915L8.207 15.585L8.1335 15.1785L8.1035 14.97L8.045 14.4855L8.009 13.938L8 13.5C7.99996 10.7775 9.05734 8.16147 10.9491 6.20366C12.8409 4.24584 15.4191 3.09934 18.14 3.006L18.5 3Z"
      fill="#42A5F5"
    />
</g>
<defs>
<clipPath id="clip0_377_1252">
<rect width="36" height="36" fill="white" transform="translate(0.5)" />
</clipPath>
</defs>
</svg>
