<svg width="37" height="36" viewBox="0 0 37 36" fill="none" xmlns="http://www.w3.org/2000/svg">
<g clip-path="url(#clip0_232_8862)">
<path
      d="M30.5 4.5H29V3C29 2.175 28.325 1.5 27.5 1.5C26.675 1.5 26 2.175 26 3V4.5H11V3C11 2.175 10.325 1.5 9.5 1.5C8.675 1.5 8 2.175 8 3V4.5H6.5C4.85 4.5 3.5 5.85 3.5 7.5V31.5C3.5 33.15 4.85 34.5 6.5 34.5H30.5C32.15 34.5 33.5 33.15 33.5 31.5V7.5C33.5 5.85 32.15 4.5 30.5 4.5ZM29 31.5H8C7.175 31.5 6.5 30.825 6.5 30V12H30.5V30C30.5 30.825 29.825 31.5 29 31.5Z"
      fill="#1E9F58"
    />
</g>
<defs>
<clipPath id="clip0_232_8862">
<rect width="36" height="36" fill="white" transform="translate(0.5)" />
</clipPath>
</defs>
</svg>
