<svg width="21" height="20" viewBox="0 0 21 20" fill="none" xmlns="http://www.w3.org/2000/svg">
  <path
    d="M10.5001 11.6667C10.6649 11.6667 10.826 11.6179 10.9631 11.5263C11.1001 11.4347 11.2069 11.3046 11.27 11.1523C11.3331 11 11.3496 10.8325 11.3174 10.6708C11.2852 10.5092 11.2059 10.3607 11.0893 10.2442C10.9728 10.1276 10.8243 10.0482 10.6627 10.0161C10.501 9.98394 10.3334 10.0004 10.1812 10.0635C10.0289 10.1266 9.89876 10.2334 9.80719 10.3704C9.71562 10.5075 9.66675 10.6686 9.66675 10.8334C9.66675 11.0544 9.75455 11.2664 9.91083 11.4227C10.0671 11.5789 10.2791 11.6667 10.5001 11.6667ZM14.6667 11.6667C14.8316 11.6667 14.9927 11.6179 15.1297 11.5263C15.2668 11.4347 15.3736 11.3046 15.4366 11.1523C15.4997 11 15.5162 10.8325 15.4841 10.6708C15.4519 10.5092 15.3725 10.3607 15.256 10.2442C15.1395 10.1276 14.991 10.0482 14.8293 10.0161C14.6677 9.98394 14.5001 10.0004 14.3478 10.0635C14.1956 10.1266 14.0654 10.2334 13.9739 10.3704C13.8823 10.5075 13.8334 10.6686 13.8334 10.8334C13.8334 11.0544 13.9212 11.2664 14.0775 11.4227C14.2338 11.5789 14.4457 11.6667 14.6667 11.6667ZM10.5001 15.0001C10.6649 15.0001 10.826 14.9512 10.9631 14.8596C11.1001 14.7681 11.2069 14.6379 11.27 14.4857C11.3331 14.3334 11.3496 14.1658 11.3174 14.0042C11.2852 13.8425 11.2059 13.694 11.0893 13.5775C10.9728 13.4609 10.8243 13.3816 10.6627 13.3494C10.501 13.3173 10.3334 13.3338 10.1812 13.3968C10.0289 13.4599 9.89876 13.5667 9.80719 13.7038C9.71562 13.8408 9.66675 14.0019 9.66675 14.1667C9.66675 14.3878 9.75455 14.5997 9.91083 14.756C10.0671 14.9123 10.2791 15.0001 10.5001 15.0001ZM14.6667 15.0001C14.8316 15.0001 14.9927 14.9512 15.1297 14.8596C15.2668 14.7681 15.3736 14.6379 15.4366 14.4857C15.4997 14.3334 15.5162 14.1658 15.4841 14.0042C15.4519 13.8425 15.3725 13.694 15.256 13.5775C15.1395 13.4609 14.991 13.3816 14.8293 13.3494C14.6677 13.3173 14.5001 13.3338 14.3478 13.3968C14.1956 13.4599 14.0654 13.5667 13.9739 13.7038C13.8823 13.8408 13.8334 14.0019 13.8334 14.1667C13.8334 14.3878 13.9212 14.5997 14.0775 14.756C14.2338 14.9123 14.4457 15.0001 14.6667 15.0001ZM6.33341 11.6667C6.49823 11.6667 6.65935 11.6179 6.79639 11.5263C6.93343 11.4347 7.04024 11.3046 7.10331 11.1523C7.16639 11 7.18289 10.8325 7.15074 10.6708C7.11858 10.5092 7.03921 10.3607 6.92267 10.2442C6.80613 10.1276 6.65764 10.0482 6.49599 10.0161C6.33434 9.98394 6.16678 10.0004 6.01451 10.0635C5.86224 10.1266 5.73209 10.2334 5.64052 10.3704C5.54896 10.5075 5.50008 10.6686 5.50008 10.8334C5.50008 11.0544 5.58788 11.2664 5.74416 11.4227C5.90044 11.5789 6.1124 11.6667 6.33341 11.6667ZM16.3334 3.33341H15.5001V2.50008C15.5001 2.27907 15.4123 2.06711 15.256 1.91083C15.0997 1.75455 14.8878 1.66675 14.6667 1.66675C14.4457 1.66675 14.2338 1.75455 14.0775 1.91083C13.9212 2.06711 13.8334 2.27907 13.8334 2.50008V3.33341H7.16675V2.50008C7.16675 2.27907 7.07895 2.06711 6.92267 1.91083C6.76639 1.75455 6.55443 1.66675 6.33341 1.66675C6.1124 1.66675 5.90044 1.75455 5.74416 1.91083C5.58788 2.06711 5.50008 2.27907 5.50008 2.50008V3.33341H4.66675C4.00371 3.33341 3.36782 3.59681 2.89898 4.06565C2.43014 4.53449 2.16675 5.17037 2.16675 5.83341V15.8334C2.16675 16.4965 2.43014 17.1323 2.89898 17.6012C3.36782 18.07 4.00371 18.3334 4.66675 18.3334H16.3334C16.9965 18.3334 17.6323 18.07 18.1012 17.6012C18.57 17.1323 18.8334 16.4965 18.8334 15.8334V5.83341C18.8334 5.17037 18.57 4.53449 18.1012 4.06565C17.6323 3.59681 16.9965 3.33341 16.3334 3.33341ZM17.1667 15.8334C17.1667 16.0544 17.079 16.2664 16.9227 16.4227C16.7664 16.579 16.5544 16.6667 16.3334 16.6667H4.66675C4.44573 16.6667 4.23377 16.579 4.07749 16.4227C3.92121 16.2664 3.83341 16.0544 3.83341 15.8334V8.33341H17.1667V15.8334ZM17.1667 6.66675H3.83341V5.83341C3.83341 5.6124 3.92121 5.40044 4.07749 5.24416C4.23377 5.08788 4.44573 5.00008 4.66675 5.00008H16.3334C16.5544 5.00008 16.7664 5.08788 16.9227 5.24416C17.079 5.40044 17.1667 5.6124 17.1667 5.83341V6.66675ZM6.33341 15.0001C6.49823 15.0001 6.65935 14.9512 6.79639 14.8596C6.93343 14.7681 7.04024 14.6379 7.10331 14.4857C7.16639 14.3334 7.18289 14.1658 7.15074 14.0042C7.11858 13.8425 7.03921 13.694 6.92267 13.5775C6.80613 13.4609 6.65764 13.3816 6.49599 13.3494C6.33434 13.3173 6.16678 13.3338 6.01451 13.3968C5.86224 13.4599 5.73209 13.5667 5.64052 13.7038C5.54896 13.8408 5.50008 14.0019 5.50008 14.1667C5.50008 14.3878 5.58788 14.5997 5.74416 14.756C5.90044 14.9123 6.1124 15.0001 6.33341 15.0001Z"
    fill="{{fill|default(currentColor)}}"
  />
</svg>
