<svg width="20" height="20" viewBox="0 0 20 20" fill="none" xmlns="http://www.w3.org/2000/svg">
<path
    d="M18.28 2.62H14.5V1.18C14.5 1.081 14.419 1 14.32 1H13.06C12.961 1 12.88 1.081 12.88 1.18V2.62H7.12V1.18C7.12 1.081 7.039 1 6.94 1H5.68C5.581 1 5.5 1.081 5.5 1.18V2.62H1.72C1.32175 2.62 1 2.94175 1 3.34V18.28C1 18.6783 1.32175 19 1.72 19H18.28C18.6783 19 19 18.6783 19 18.28V3.34C19 2.94175 18.6783 2.62 18.28 2.62ZM17.38 17.38H2.62V8.83H17.38V17.38ZM2.62 7.3V4.24H5.5V5.32C5.5 5.419 5.581 5.5 5.68 5.5H6.94C7.039 5.5 7.12 5.419 7.12 5.32V4.24H12.88V5.32C12.88 5.419 12.961 5.5 13.06 5.5H14.32C14.419 5.5 14.5 5.419 14.5 5.32V4.24H17.38V7.3H2.62Z"
    fill="{{fill|default(currentColor)}}"
  />
</svg>
