<svg width="16" height="16" viewBox="0 0 16 16" fill="none" xmlns="http://www.w3.org/2000/svg">
<g clip-path="url(#clip0_152_8063)">
<path
      d="M11.3333 2.22676C12.3388 2.80733 13.1753 3.64044 13.7599 4.64362C14.3444 5.64681 14.6569 6.78527 14.6663 7.94632C14.6756 9.10736 14.3816 10.2507 13.8133 11.2632C13.245 12.2757 12.4221 13.1222 11.4261 13.719C10.4301 14.3157 9.29556 14.642 8.13471 14.6655C6.97387 14.689 5.82701 14.4089 4.80768 13.8529C3.78835 13.297 2.93189 12.4844 2.32309 11.4958C1.71429 10.5071 1.37425 9.37656 1.33665 8.21609L1.33331 8.00009L1.33665 7.78409C1.37398 6.63275 1.70901 5.51073 2.30907 4.52742C2.90913 3.54411 3.75375 2.73306 4.76057 2.17335C5.7674 1.61363 6.90208 1.32436 8.05398 1.33372C9.20589 1.34308 10.3357 1.65076 11.3333 2.22676ZM7.99998 4.00009C7.83669 4.00011 7.67909 4.06006 7.55706 4.16857C7.43504 4.27707 7.35708 4.42659 7.33798 4.58876L7.33331 4.66676V8.00009L7.33931 8.08742C7.35451 8.20309 7.3998 8.31274 7.47065 8.40542L7.52865 8.47209L9.52865 10.4721L9.59131 10.5268C9.70823 10.6175 9.852 10.6667 9.99998 10.6667C10.148 10.6667 10.2917 10.6175 10.4086 10.5268L10.4713 10.4714L10.5266 10.4088C10.6174 10.2918 10.6666 10.1481 10.6666 10.0001C10.6666 9.85211 10.6174 9.70834 10.5266 9.59142L10.4713 9.52876L8.66665 7.72342V4.66676L8.66198 4.58876C8.64287 4.42659 8.56492 4.27707 8.44289 4.16857C8.32087 4.06006 8.16327 4.00011 7.99998 4.00009Z"
      fill="{{fill|default(currentColor)}}"
    />
</g>
<defs>
<clipPath id="clip0_152_8063">
<rect width="16" height="16" fill="{{fill}}" />
</clipPath>
</defs>
</svg>
