<svg width="19" height="18" viewBox="0 0 19 18" fill="none" xmlns="http://www.w3.org/2000/svg">
  <path
    fill-rule="evenodd"
    clip-rule="evenodd"
    d="M9.3363 2.625C5.82105 2.625 2.9613 5.48475 2.9613 9C2.9613 12.5153 5.82105 15.375 9.3363 15.375C12.8516 15.375 15.7113 12.5153 15.7113 9C15.7113 5.48475 12.8516 2.625 9.3363 2.625ZM9.3363 16.5C5.2008 16.5 1.8363 13.1355 1.8363 9C1.8363 4.8645 5.2008 1.5 9.3363 1.5C13.4718 1.5 16.8363 4.8645 16.8363 9C16.8363 13.1355 13.4718 16.5 9.3363 16.5Z"
    fill="{{fill|default(currentColor)}}"
  />
  <path
    fill-rule="evenodd"
    clip-rule="evenodd"
    d="M11.9097 11.7693C11.8115 11.7693 11.7125 11.7438 11.6217 11.6905L8.7942 10.0038C8.6247 9.90178 8.5197 9.71803 8.5197 9.52003V5.88403C8.5197 5.57353 8.7717 5.32153 9.0822 5.32153C9.39345 5.32153 9.6447 5.57353 9.6447 5.88403V9.20053L12.1985 10.723C12.4647 10.8828 12.5525 11.2278 12.3935 11.4948C12.2877 11.671 12.101 11.7693 11.9097 11.7693Z"
    fill="{{fill}}"
  />
</svg>
