<svg width="37" height="36" viewBox="0 0 37 36" fill="none" xmlns="http://www.w3.org/2000/svg">
<g clip-path="url(#clip0_232_8893)">
<path
      d="M26.7832 9.44994C26.1982 8.86494 25.2532 8.86494 24.6682 9.44994L16.2082 17.9099L18.3232 20.0249L26.7832 11.5499C27.3532 10.9799 27.3532 10.0199 26.7832 9.44994ZM33.1432 9.43494L18.3232 24.2549L13.1032 19.0499C12.5182 18.4649 11.5732 18.4649 10.9882 19.0499C10.4032 19.6349 10.4032 20.5799 10.9882 21.1649L17.2582 27.4349C17.8432 28.0199 18.7882 28.0199 19.3732 27.4349L35.2582 11.5649C35.8432 10.9799 35.8432 10.0349 35.2582 9.44994H35.2432C34.6732 8.84994 33.7282 8.84994 33.1432 9.43494ZM2.51321 21.1799L8.78321 27.4499C9.36821 28.0349 10.3132 28.0349 10.8982 27.4499L11.9482 26.3999L4.62821 19.0499C4.04321 18.4649 3.09821 18.4649 2.51321 19.0499C1.92821 19.6349 1.92821 20.5949 2.51321 21.1799Z"
      fill="#1E9F58"
    />
</g>
<defs>
<clipPath id="clip0_232_8893">
<rect width="36" height="36" fill="white" transform="translate(0.833252)" />
</clipPath>
</defs>
</svg>
