<svg width="28" height="28" viewBox="0 0 28 28" fill="none" xmlns="http://www.w3.org/2000/svg">
<path
    d="M9.97506 14C9.97506 13.8833 9.9945 13.7764 10.0334 13.6792C10.0723 13.5819 10.1306 13.4944 10.2084 13.4167L14.0001 9.625C14.1362 9.50833 14.2966 9.45 14.4813 9.45C14.666 9.45 14.8264 9.51805 14.9626 9.65417C15.0987 9.79028 15.1667 9.94583 15.1667 10.1208C15.1667 10.2958 15.0987 10.4611 14.9626 10.6167L12.1917 13.3292L22.2834 13.3292C22.4778 13.3292 22.6383 13.3924 22.7646 13.5187C22.891 13.6451 22.9542 13.8056 22.9542 14C22.9542 14.1944 22.891 14.3549 22.7646 14.4812C22.6383 14.6076 22.4778 14.6708 22.2834 14.6708L12.1917 14.6708L14.9626 17.4125C15.0792 17.5486 15.1424 17.709 15.1521 17.8937C15.1619 18.0785 15.0987 18.2389 14.9626 18.375C14.8264 18.5111 14.666 18.5792 14.4813 18.5792C14.2966 18.5792 14.1362 18.5111 14.0001 18.375L10.2084 14.5833C10.1306 14.5056 10.0723 14.4181 10.0334 14.3208C9.9945 14.2236 9.97506 14.1167 9.97506 14ZM5.25006 6.94167C5.25006 6.475 5.41533 6.07639 5.74589 5.74583C6.07644 5.41528 6.47506 5.25 6.94172 5.25L9.91672 5.25C10.0917 5.25 10.2424 5.31319 10.3688 5.43958C10.4952 5.56597 10.5584 5.72639 10.5584 5.92083C10.5584 6.11528 10.4952 6.27083 10.3688 6.3875C10.2424 6.50417 10.0917 6.5625 9.91672 6.5625L6.94172 6.5625C6.8445 6.5625 6.757 6.60139 6.67922 6.67917C6.60145 6.75694 6.56256 6.84444 6.56256 6.94167L6.56256 21.0583C6.56256 21.1556 6.60145 21.2431 6.67922 21.3208C6.757 21.3986 6.8445 21.4375 6.94172 21.4375L9.91672 21.4375C10.0917 21.4375 10.2424 21.5007 10.3688 21.6271C10.4952 21.7535 10.5584 21.9042 10.5584 22.0792C10.5584 22.2736 10.4952 22.434 10.3688 22.5604C10.2424 22.6868 10.0917 22.75 9.91672 22.75L6.94172 22.75C6.47506 22.75 6.07644 22.5847 5.74589 22.2542C5.41533 21.9236 5.25006 21.525 5.25006 21.0583L5.25006 6.94167Z"
    fill="{{fill|default(currentColor)}}"
  />
</svg>
