<svg width="20" height="20" viewBox="0 0 20 20" fill="none" xmlns="http://www.w3.org/2000/svg">
<path
    d="M11.8083 11.425L12.975 9.40834C13.05 9.28334 13.0167 9.12501 12.9083 9.03334L11.675 8.06667C11.7 7.88334 11.7167 7.69167 11.7167 7.50001C11.7167 7.30834 11.7 7.11667 11.675 6.92501L12.9083 5.95834C13.0167 5.86667 13.05 5.70834 12.975 5.58334L11.8083 3.56667C11.7333 3.44167 11.5833 3.39167 11.45 3.44167L9.99999 4.02501C9.69999 3.79167 9.37499 3.60001 9.01666 3.45001L8.79999 1.90834C8.77499 1.77501 8.64999 1.66667 8.50833 1.66667H6.17499C6.03333 1.66667 5.90833 1.77501 5.88333 1.91667L5.66666 3.45834C5.31666 3.60834 4.98333 3.80001 4.68333 4.03334L3.23333 3.45001C3.09999 3.40001 2.94999 3.45001 2.87499 3.57501L1.70833 5.59167C1.63333 5.71667 1.66666 5.87501 1.77499 5.96667L3.00833 6.93334C2.98333 7.11667 2.96666 7.30834 2.96666 7.50001C2.96666 7.69167 2.98333 7.88334 3.00833 8.07501L1.77499 9.04167C1.66666 9.13334 1.63333 9.29167 1.70833 9.41667L2.87499 11.4333C2.94999 11.5583 3.09999 11.6083 3.23333 11.5583L4.68333 10.975C4.98333 11.2083 5.30833 11.4 5.66666 11.55L5.88333 13.0917C5.90833 13.225 6.03333 13.3333 6.17499 13.3333H8.50833C8.64999 13.3333 8.77499 13.225 8.79999 13.0833L9.01666 11.5417C9.36666 11.3917 9.69999 11.2 9.99999 10.9667L11.45 11.55C11.5833 11.6 11.7333 11.55 11.8083 11.425ZM7.34166 9.16667C6.42499 9.16667 5.67499 8.41667 5.67499 7.50001C5.67499 6.58334 6.42499 5.83334 7.34166 5.83334C8.25833 5.83334 9.00833 6.58334 9.00833 7.50001C9.00833 8.41667 8.25833 9.16667 7.34166 9.16667Z"
    stroke="{{stroke|default(currentColor)}}"
  />
<path
    d="M18.2666 15.5583L17.4666 14.9417C17.4833 14.825 17.5 14.7 17.5 14.575C17.5 14.45 17.4916 14.325 17.4666 14.2083L18.2583 13.5917C18.325 13.5333 18.35 13.4333 18.3 13.35L17.55 12.0583C17.5083 11.975 17.4083 11.95 17.3166 11.975L16.3916 12.35C16.2 12.2 15.9916 12.075 15.7583 11.9833L15.6166 11C15.6083 10.9 15.525 10.8333 15.4416 10.8333H13.95C13.8583 10.8333 13.775 10.9 13.7666 10.9917L13.625 11.975C13.4 12.075 13.1833 12.1917 12.9916 12.3417L12.0666 11.9667C11.9833 11.9333 11.8833 11.9667 11.8333 12.05L11.0833 13.3417C11.0416 13.425 11.05 13.525 11.125 13.5833L11.9166 14.2C11.9 14.3167 11.8916 14.4417 11.8916 14.5667C11.8916 14.6917 11.9 14.8167 11.9166 14.9333L11.125 15.55C11.0583 15.6083 11.0333 15.7083 11.0833 15.7917L11.8333 17.0833C11.875 17.1667 11.975 17.1917 12.0666 17.1667L12.9916 16.7917C13.1833 16.9417 13.3916 17.0667 13.625 17.1583L13.7666 18.1417C13.7833 18.2333 13.8583 18.3 13.95 18.3H15.4416C15.5333 18.3 15.6166 18.2333 15.625 18.1417L15.7666 17.1583C15.9916 17.0583 16.2083 16.9417 16.3916 16.7917L17.325 17.1667C17.4083 17.2 17.5083 17.1667 17.5583 17.0833L18.3083 15.7917C18.3583 15.7167 18.3333 15.6167 18.2666 15.5583ZM14.6916 15.6917C14.075 15.6917 13.5666 15.1917 13.5666 14.5667C13.5666 13.9417 14.0666 13.4417 14.6916 13.4417C15.3166 13.4417 15.8166 13.9417 15.8166 14.5667C15.8166 15.1917 15.3083 15.6917 14.6916 15.6917Z"
    stroke="{{stroke}}"
  />
</svg>
