<svg width="24" height="25" viewBox="0 0 24 25" fill="none" xmlns="http://www.w3.org/2000/svg">
<path
    d="M12 3.16667L12.4339 2.6605C12.1842 2.4465 11.8158 2.4465 11.5661 2.6605L12 3.16667ZM2.66667 11.1667L2.23281 10.6605L2 10.86V11.1667H2.66667ZM9.33333 21.8333V22.5C9.70152 22.5 10 22.2015 10 21.8333H9.33333ZM14.6667 21.8333H14C14 22.2015 14.2985 22.5 14.6667 22.5V21.8333ZM21.3333 11.1667H22V10.86L21.7672 10.6605L21.3333 11.1667ZM4 22.5H9.33333V21.1667H4V22.5ZM21.7672 10.6605L12.4339 2.6605L11.5661 3.67284L20.8995 11.6728L21.7672 10.6605ZM11.5661 2.6605L2.23281 10.6605L3.10053 11.6728L12.4339 3.67284L11.5661 2.6605ZM10 21.8333V17.8333H8.66667V21.8333H10ZM14 17.8333V21.8333H15.3333V17.8333H14ZM14.6667 22.5H20V21.1667H14.6667V22.5ZM22 20.5V11.1667H20.6667V20.5H22ZM2 11.1667V20.5H3.33333V11.1667H2ZM12 15.8333C13.1046 15.8333 14 16.7288 14 17.8333H15.3333C15.3333 15.9924 13.8409 14.5 12 14.5V15.8333ZM12 14.5C10.1591 14.5 8.66667 15.9924 8.66667 17.8333H10C10 16.7288 10.8954 15.8333 12 15.8333V14.5ZM20 22.5C21.1045 22.5 22 21.6045 22 20.5H20.6667C20.6667 20.8681 20.3681 21.1667 20 21.1667V22.5ZM4 21.1667C3.63181 21.1667 3.33333 20.8681 3.33333 20.5H2C2 21.6045 2.89543 22.5 4 22.5V21.1667Z"
    fill="#5E5E62"
  />
<path
    d="M12.4339 2.6605L12 3.16667L11.5661 2.6605M12.4339 2.6605C12.1842 2.4465 11.8158 2.4465 11.5661 2.6605M12.4339 2.6605L21.7672 10.6605M12.4339 2.6605L11.5661 3.67284L20.8995 11.6728L21.7672 10.6605M11.5661 2.6605L2.23281 10.6605M11.5661 2.6605L12.4339 3.67284L3.10053 11.6728L2.23281 10.6605M2.23281 10.6605L2.66667 11.1667H2M2.23281 10.6605L2 10.86V11.1667M2 11.1667V20.5M2 11.1667H3.33333V20.5M9.33333 22.5V21.8333H10M9.33333 22.5C9.70152 22.5 10 22.2015 10 21.8333M9.33333 22.5H4M9.33333 22.5V21.1667H4M10 21.8333V17.8333M10 21.8333H8.66667V17.8333M14 21.8333H14.6667V22.5M14 21.8333C14 22.2015 14.2985 22.5 14.6667 22.5M14 21.8333V17.8333M14 21.8333H15.3333V17.8333M14.6667 22.5H20M14.6667 22.5V21.1667H20M22 11.1667H21.3333L21.7672 10.6605M22 11.1667V10.86L21.7672 10.6605M22 11.1667V20.5M22 11.1667H20.6667V20.5M4 22.5V21.1667M4 22.5C2.89543 22.5 2 21.6045 2 20.5M4 21.1667C3.63181 21.1667 3.33333 20.8681 3.33333 20.5M10 17.8333H8.66667M10 17.8333C10 16.7288 10.8954 15.8333 12 15.8333M8.66667 17.8333C8.66667 15.9924 10.1591 14.5 12 14.5M14 17.8333H15.3333M14 17.8333C14 16.7288 13.1046 15.8333 12 15.8333M15.3333 17.8333C15.3333 15.9924 13.8409 14.5 12 14.5M20 22.5V21.1667M20 22.5C21.1045 22.5 22 21.6045 22 20.5M20 21.1667C20.3681 21.1667 20.6667 20.8681 20.6667 20.5M22 20.5H20.6667M2 20.5H3.33333M12 15.8333V14.5"
    stroke="#5E5E62"
    stroke-width="0.5"
  />
</svg>
