<svg width="16" height="16" viewBox="0 0 16 16" fill="none" xmlns="http://www.w3.org/2000/svg">
<g clip-path="url(#clip0_152_8059)">
<path
      fill-rule="evenodd"
      clip-rule="evenodd"
      d="M8.95758 15.168C10.744 13.528 14.4 9.7136 14.4 6C14.4 2.6864 11.5344 0 7.99998 0C4.46558 0 1.59998 2.6864 1.59998 6C1.59998 9.7144 5.25678 13.528 7.04238 15.168C7.59038 15.6712 8.40958 15.6712 8.95758 15.168ZM7.99998 8.8C8.6365 8.8 9.24694 8.54714 9.69703 8.09706C10.1471 7.64697 10.4 7.03652 10.4 6.4C10.4 5.76348 10.1471 5.15303 9.69703 4.70294C9.24694 4.25286 8.6365 4 7.99998 4C7.36346 4 6.75301 4.25286 6.30292 4.70294C5.85283 5.15303 5.59998 5.76348 5.59998 6.4C5.59998 7.03652 5.85283 7.64697 6.30292 8.09706C6.75301 8.54714 7.36346 8.8 7.99998 8.8Z"
      fill="{{fill|default(currentColor)}}"
    />
</g>
<defs>
<clipPath id="clip0_152_8059">
<rect width="16" height="16" fill="{{fill}}" />
</clipPath>
</defs>
</svg>
