<svg width="24" height="24" viewBox="0 0 24 24" fill="none" xmlns="http://www.w3.org/2000/svg">
  <g id="More Horizontal">
    <path
      id="Vector"
      d="M4.99992 13.1667C5.64425 13.1667 6.16659 12.6444 6.16659 12C6.16659 11.3557 5.64425 10.8334 4.99992 10.8334C4.35559 10.8334 3.83325 11.3557 3.83325 12C3.83325 12.6444 4.35559 13.1667 4.99992 13.1667Z"
      stroke="#5E5E62"
      stroke-width="2"
      stroke-linecap="round"
      stroke-linejoin="round"
    />
    <path
      id="Vector_2"
      d="M11.9999 13.1667C12.6443 13.1667 13.1666 12.6444 13.1666 12C13.1666 11.3557 12.6443 10.8334 11.9999 10.8334C11.3556 10.8334 10.8333 11.3557 10.8333 12C10.8333 12.6444 11.3556 13.1667 11.9999 13.1667Z"
      stroke="#5E5E62"
      stroke-width="2"
      stroke-linecap="round"
      stroke-linejoin="round"
    />
    <path
      id="Vector_3"
      d="M18.9999 13.1667C19.6443 13.1667 20.1666 12.6444 20.1666 12C20.1666 11.3557 19.6443 10.8334 18.9999 10.8334C18.3556 10.8334 17.8333 11.3557 17.8333 12C17.8333 12.6444 18.3556 13.1667 18.9999 13.1667Z"
      stroke="#5E5E62"
      stroke-width="2"
      stroke-linecap="round"
      stroke-linejoin="round"
    />
  </g>
</svg>
