<svg width="32" height="40" viewBox="0 0 32 40" fill="none" xmlns="http://www.w3.org/2000/svg">
<path
    d="M26.7246 26.5586C26.356 27.2282 25.6496 27.7273 24.8135 27.7273H7.20621C5.40631 27.7273 4.38716 25.8513 5.40281 24.3612L5.40729 24.3547L5.41165 24.348L7.19669 21.6378L7.36155 21.3875V21.0877V17.3466C7.36155 12.7483 11.2207 9 15.9483 9C18.3129 9 20.4273 9.96782 22.0423 11.4162L22.0434 11.4172L22.0449 11.4187C23.5395 12.871 24.535 15.048 24.535 17.3466V21.0708V21.386L24.7157 21.6442L26.6029 24.341L26.6103 24.3516L26.618 24.362C27.1251 25.0483 27.0927 25.8898 26.7246 26.5586ZM26.7246 26.5586L27.6007 27.0407M12.6365 30.9091C12.6365 30.8589 12.6772 30.8182 12.7274 30.8182H19.2729C19.3231 30.8182 19.3638 30.8589 19.3638 30.9091C19.3638 30.9593 19.3231 31 19.2729 31H12.7274C12.6772 31 12.6365 30.9593 12.6365 30.9091Z"
    stroke="{{stroke|default(currentColor)}}"
    stroke-width="2"
  />
<path
    d="M21.6265 12C23.2834 12 24.6265 10.6569 24.6265 9C24.6265 7.34315 23.2834 6 21.6265 6C19.9697 6 18.6265 7.34315 18.6265 9C18.6265 10.6569 19.9697 12 21.6265 12Z"
    fill="{{checkmark|type(boolean)|default(none)}}"
  />
</svg>
