<svg width="20" height="20" viewBox="0 0 20 20" fill="none" xmlns="http://www.w3.org/2000/svg">
<path
    fill-rule="evenodd"
    clip-rule="evenodd"
    d="M3.93141 2.57657C4.95323 1.50079 6.64341 1.70235 7.48807 2.897L8.53891 4.38323C9.2145 5.33879 9.15741 6.66726 8.35116 7.51616L8.14708 7.73098C8.14651 7.73246 8.14591 7.73407 8.1453 7.73582C8.13451 7.76612 8.10725 7.8626 8.13408 8.04573C8.1897 8.42532 8.48275 9.19674 9.6725 10.4493C10.8659 11.7057 11.5898 12.0019 11.9252 12.0564C12.07 12.0799 12.1457 12.0595 12.1698 12.051L12.5103 11.6925C13.2385 10.9258 14.3737 10.7748 15.2892 11.3017L16.8812 12.2181C18.242 13.0013 18.5587 14.9173 17.4712 16.0622L16.2875 17.3086C15.918 17.6976 15.4142 18.0296 14.7917 18.091C13.2717 18.2411 9.75083 18.0457 6.05967 14.1596C2.61536 10.5333 1.96105 7.37926 1.87834 5.83825C1.83747 5.07686 2.17686 4.42378 2.62341 3.95366L3.93141 2.57657ZM6.46741 3.61863C6.04045 3.01476 5.27343 2.97873 4.83773 3.43743L3.52973 4.81451C3.25357 5.10526 3.10868 5.4385 3.12654 5.77126C3.19407 7.02943 3.73589 9.89799 6.96599 13.2987C10.3528 16.8644 13.473 16.9651 14.6688 16.8471C14.9053 16.8237 15.1486 16.6925 15.3812 16.4477L16.5649 15.2014C17.0756 14.6637 16.9417 13.6952 16.2577 13.3015L14.6656 12.3851C14.2383 12.1392 13.7378 12.2152 13.4167 12.5533L13.0371 12.9529L12.5978 12.5357C13.0371 12.9529 13.0365 12.9535 13.036 12.9542L13.0347 12.9553L13.0323 12.9579L13.027 12.9633L13.0151 12.9751C13.0065 12.9834 12.9966 12.9925 12.9854 13.0023C12.963 13.022 12.9352 13.0444 12.902 13.068C12.8352 13.1153 12.7462 13.1674 12.6338 13.2117C12.4038 13.3025 12.1001 13.3512 11.7249 13.2902C10.9936 13.1715 10.0352 12.6462 8.76616 11.3102C7.49335 9.97016 7.00621 8.97041 6.89729 8.22694C6.84185 7.84855 6.88621 7.54556 6.96763 7.31675C7.00767 7.20422 7.05495 7.11451 7.09855 7.04637C7.12029 7.0124 7.14101 6.98395 7.15933 6.96081C7.16849 6.94923 7.17705 6.93897 7.18485 6.93001L7.19595 6.91752L7.20104 6.912L7.20345 6.90941L7.20463 6.90816C7.2052 6.90755 7.20578 6.90695 7.64884 7.32776L7.20579 6.90694L7.4448 6.6553C7.81608 6.26441 7.87002 5.60242 7.51824 5.10487L6.46741 3.61863Z"
    fill="{{fill|default(currentColor)}}"
  />
<path
    d="M11.0496 1.56673C11.1048 1.22599 11.4268 0.994841 11.7676 1.05001C11.7887 1.05404 11.8566 1.06672 11.8921 1.07465C11.9633 1.09048 12.0624 1.11487 12.1861 1.15088C12.4334 1.22292 12.7789 1.34159 13.1936 1.53171C14.0238 1.91233 15.1287 2.57817 16.2752 3.72467C17.4217 4.87117 18.0875 5.97602 18.4681 6.80625C18.6583 7.22092 18.7769 7.56643 18.8489 7.81375C18.8849 7.93742 18.9093 8.03661 18.9252 8.10772C18.9331 8.14327 18.9389 8.17182 18.9429 8.19292L18.9478 8.21891C19.0028 8.55967 18.7738 8.89508 18.4331 8.95025C18.0933 9.00525 17.7733 8.77525 17.7168 8.43608C17.715 8.427 17.7102 8.4025 17.7051 8.37942C17.6948 8.33328 17.677 8.2601 17.6488 8.16331C17.5924 7.96969 17.4945 7.68192 17.3318 7.32718C17.007 6.6186 16.4228 5.64011 15.3913 4.60856C14.3598 3.577 13.3813 2.99284 12.6727 2.66798C12.3179 2.50535 12.0302 2.40741 11.8365 2.35102C11.7398 2.32282 11.6181 2.29489 11.5719 2.28462C11.2328 2.2281 10.9946 1.9065 11.0496 1.56673Z"
    fill="{{fill}}"
  />
<path
    fill-rule="evenodd"
    clip-rule="evenodd"
    d="M11.2384 4.4411C11.3332 4.1092 11.6792 3.91702 12.0111 4.01185L11.8393 4.6128C12.0111 4.01185 12.0107 4.01177 12.0111 4.01185L12.0122 4.01219L12.0135 4.01256L12.0163 4.01338L12.0227 4.0153L12.0392 4.02043C12.0518 4.02446 12.0675 4.02969 12.0862 4.03633C12.1237 4.04961 12.1731 4.06849 12.2337 4.0945C12.3552 4.14653 12.5211 4.22688 12.7248 4.34747C13.1327 4.58888 13.6896 4.98985 14.3437 5.644C14.9978 6.29814 15.3988 6.85497 15.6402 7.26285C15.7608 7.46661 15.8412 7.6325 15.8932 7.7539C15.9192 7.81458 15.9381 7.86403 15.9513 7.90147C15.958 7.92018 15.9632 7.93587 15.9672 7.94843L15.9724 7.96492L15.9743 7.97138L15.9752 7.97416L15.9755 7.97543C15.9756 7.97573 15.9758 7.97664 15.3749 8.14834L15.9758 7.97663C16.0707 8.30854 15.8785 8.65443 15.5466 8.74926C15.2175 8.84334 14.8747 8.65518 14.7764 8.32846L14.7733 8.31948C14.7689 8.30695 14.7597 8.2823 14.7442 8.2463C14.7134 8.17435 14.6575 8.05666 14.5645 7.8995C14.3787 7.58555 14.0431 7.11118 13.4598 6.52788C12.8765 5.94458 12.4022 5.609 12.0882 5.42319C11.931 5.33018 11.8133 5.27427 11.7414 5.24343C11.7054 5.228 11.6807 5.21881 11.6682 5.21436L11.6592 5.21128C11.3325 5.11305 11.1444 4.77018 11.2384 4.4411Z"
    fill="{{fill}}"
  />
</svg>
