<svg width="20" height="20" viewBox="0 0 20 20" fill="none" xmlns="http://www.w3.org/2000/svg">
  <g clip-path="url(#clip0_377_990)">
    <path
      d="M16.025 12.7166L13.9084 12.475C13.4 12.4166 12.9 12.5916 12.5417 12.95L11.0084 14.4833C8.65003 13.2833 6.7167 11.3583 5.5167 8.99163L7.05837 7.44997C7.4167 7.09163 7.5917 6.59163 7.53337 6.0833L7.2917 3.9833C7.1917 3.14163 6.48337 2.5083 5.63337 2.5083H4.1917C3.25003 2.5083 2.4667 3.29163 2.52503 4.2333C2.9667 11.35 8.65837 17.0333 15.7667 17.475C16.7084 17.5333 17.4917 16.75 17.4917 15.8083V14.3666C17.5 13.525 16.8667 12.8166 16.025 12.7166Z"
      fill="{{fill|default(currentColor)}}"
    />
  </g>
  <defs>
    <clipPath id="clip0_377_990">
      <rect width="20" height="20" fill="{{fill|default(currentColor)}}" />
    </clipPath>
  </defs>
</svg>
