<svg width="24" height="24" viewBox="0 0 24 24" fill="none" xmlns="http://www.w3.org/2000/svg">
<g clip-path="url(#clip0_2000_3806)">
<mask id="mask0_2000_3806" style="mask-type:luminance" maskUnits="userSpaceOnUse" x="0" y="0" width="25" height="24">
<path d="M24.0001 0H0.00012207V24H24.0001V0Z" fill="white" />
</mask>
<g mask="url(#mask0_2000_3806)">
<path
        d="M4 18C4 15.7908 5.79086 14 8 14H16C18.2091 14 20 15.7908 20 18C20 19.1045 19.1046 20 18 20H6C4.89543 20 4 19.1045 4 18Z"
        stroke="#5E5E62"
        stroke-width="2.5"
        stroke-linejoin="round"
      />
<path
        d="M12 10C13.6569 10 15 8.65685 15 7C15 5.34315 13.6569 4 12 4C10.3431 4 9 5.34315 9 7C9 8.65685 10.3431 10 12 10Z"
        stroke="#5E5E62"
        stroke-width="2.5"
      />
</g>
</g>
<defs>
<clipPath id="clip0_2000_3806">
<rect width="24" height="24" fill="white" />
</clipPath>
</defs>
</svg>
