<svg width="36" height="36" viewBox="0 0 36 36" fill="none" xmlns="http://www.w3.org/2000/svg">
<path
    d="M11.25 7.5V7.5C10.553 7.5 10.2045 7.5 9.91473 7.55764C8.72466 7.79436 7.79436 8.72466 7.55764 9.91473C7.5 10.2045 7.5 10.553 7.5 11.25V18C7.5 19.394 7.5 20.0909 7.61529 20.6705C8.08873 23.0507 9.94931 24.9113 12.3295 25.3847C12.9091 25.5 13.606 25.5 15 25.5V25.5M11.25 7.5C11.25 8.32843 11.9216 9 12.75 9C13.5784 9 14.25 8.32843 14.25 7.5C14.25 6.67157 13.5784 6 12.75 6C11.9216 6 11.25 6.67157 11.25 7.5ZM19.5 7.5C19.5 8.32843 18.8284 9 18 9C17.1716 9 16.5 8.32843 16.5 7.5C16.5 6.67157 17.1716 6 18 6C18.8284 6 19.5 6.67157 19.5 7.5ZM19.5 7.5V7.5C21.1569 7.5 22.5 8.84315 22.5 10.5V18C22.5 19.394 22.5 20.0909 22.3847 20.6705C21.9113 23.0507 20.0507 24.9113 17.6705 25.3847C17.0909 25.5 16.394 25.5 15 25.5V25.5M15 25.5C15 33 27.75 33.75 27.75 25.5V19.5"
    stroke="#2196F3"
    stroke-width="2"
  />
<path
    d="M30 17.25C30 18.4926 28.9926 19.5 27.75 19.5C26.5074 19.5 25.5 18.4926 25.5 17.25C25.5 16.0074 26.5074 15 27.75 15C28.9926 15 30 16.0074 30 17.25Z"
    stroke="#2196F3"
    stroke-width="2"
  />
<path d="M27.75 17.2349H27.765V17.2499H27.75V17.2349Z" stroke="#2196F3" stroke-linejoin="round" />
</svg>
