<svg width="32" height="32" viewBox="0 0 32 32" fill="none" xmlns="http://www.w3.org/2000/svg">
  <path
    d="M16 7C16.5523 7 17 7.44772 17 8C17 8.55228 16.5523 9 16 9C15.4477 9 15 8.55228 15 8C15 7.44772 15.4477 7 16 7ZM16 15C16.5523 15 17 15.4477 17 16C17 16.5522 16.5523 17 16 17C15.4477 17 15 16.5522 15 16C15 15.4477 15.4477 15 16 15ZM16 23C16.5523 23 17 23.4477 17 24C17 24.5522 16.5523 25 16 25C15.4477 25 15 24.5522 15 24C15 23.4477 15.4477 23 16 23Z"
    fill="{{fill|default(currentColor)}}"
    stroke="{{fill|default(currentColor)}}"
    stroke-width="1.5"
  />
</svg>
