<svg width="37" height="36" viewBox="0 0 37 36" fill="none" xmlns="http://www.w3.org/2000/svg">
<g clip-path="url(#clip0_232_8879)">
<path
      d="M19.1417 23.505C19.3517 22.965 19.2167 22.35 18.7967 21.93L15.6617 18.84L15.7067 18.795C18.3167 15.885 20.1767 12.54 21.2717 9H24.1817C24.9917 9 25.6667 8.325 25.6667 7.515V7.485C25.6667 6.675 24.9917 6 24.1817 6H15.1667V4.5C15.1667 3.675 14.4917 3 13.6667 3C12.8417 3 12.1667 3.675 12.1667 4.5V6H3.15175C2.34175 6 1.66675 6.675 1.66675 7.485C1.66675 8.31 2.34175 8.97 3.15175 8.97H18.4217C17.4167 11.88 15.8267 14.625 13.6667 17.025C12.4517 15.69 11.4317 14.235 10.5767 12.705C10.3367 12.27 9.90175 12 9.40675 12C8.37175 12 7.71175 13.125 8.22175 14.025C9.16675 15.72 10.3217 17.34 11.6717 18.84L5.11675 25.305C4.51675 25.89 4.51675 26.85 5.11675 27.435C5.70175 28.02 6.64675 28.02 7.24675 27.435L13.6667 21L16.6967 24.03C17.4617 24.795 18.7667 24.51 19.1417 23.505ZM26.4167 15C25.5167 15 24.7067 15.555 24.3917 16.41L18.8867 31.11C18.5267 32.025 19.2167 33 20.1917 33C20.7767 33 21.3017 32.64 21.5117 32.085L22.8467 28.5H29.9717L31.3217 32.085C31.5317 32.625 32.0567 33 32.6417 33C33.6167 33 34.3067 32.025 33.9618 31.11L28.4567 16.41C28.1267 15.555 27.3167 15 26.4167 15ZM23.9867 25.5L26.4167 19.005L28.8467 25.5H23.9867Z"
      fill="#1E9F58"
    />
</g>
<defs>
<clipPath id="clip0_232_8879">
<rect width="36" height="36" fill="white" transform="translate(0.166748)" />
</clipPath>
</defs>
</svg>
