<svg width="20" height="20" viewBox="0 0 20 20" fill="none" xmlns="http://www.w3.org/2000/svg">
<path
    d="M9.99999 12.3286C7.51323 12.3286 2.54901 13.5767 2.54901 16.0541V17.9168H17.451V16.0541C17.451 13.5767 12.4868 12.3286 9.99999 12.3286ZM4.41176 16.0541C4.61666 15.3835 7.4946 14.1914 9.99999 14.1914C12.5147 14.1914 15.402 15.3928 15.5882 16.0541H4.41176Z"
    stroke="{{stroke|default(currentColor)}}"
  />
<path
    d="M6.0323 6.7402H6.27446C6.27446 8.79853 7.94161 10.4657 9.99995 10.4657C12.0583 10.4657 13.7254 8.79853 13.7254 6.7402H13.9676C14.2191 6.7402 14.424 6.5353 14.424 6.28382V6.2652C14.424 6.01373 14.2191 5.80882 13.9676 5.80882H13.7254C13.7254 4.43039 12.971 3.24755 11.8627 2.59559V3.48039C11.8627 3.74118 11.6578 3.94608 11.397 3.94608C11.1362 3.94608 10.9313 3.74118 10.9313 3.48039V2.21373C10.6333 2.13922 10.3259 2.08333 9.99995 2.08333C9.67397 2.08333 9.36661 2.13922 9.06857 2.21373V3.48039C9.06857 3.74118 8.86367 3.94608 8.60289 3.94608C8.3421 3.94608 8.1372 3.74118 8.1372 3.48039V2.59559C7.02887 3.24755 6.27446 4.43039 6.27446 5.80882H6.0323C5.78083 5.80882 5.57593 6.01373 5.57593 6.2652V6.29314C5.57593 6.5353 5.78083 6.7402 6.0323 6.7402ZM11.8627 6.7402C11.8627 7.76471 11.0245 8.60294 9.99995 8.60294C8.97544 8.60294 8.1372 7.76471 8.1372 6.7402H11.8627Z"
    stroke="{{stroke}}"
  />
</svg>
