<svg width="16" height="19" viewBox="0 0 16 19" fill="none" xmlns="http://www.w3.org/2000/svg">
  <g id="fa6-solid:user-doctor" clip-path="url(#clip0_63_8952)">
    <path
      id="Vector"
      d="M7.77516 9.79165C8.9535 9.79165 10.0836 9.31974 10.9168 8.47973C11.75 7.63972 12.2181 6.50043 12.2181 5.31248C12.2181 4.12453 11.75 2.98524 10.9168 2.14523C10.0836 1.30522 8.9535 0.833313 7.77516 0.833313C6.59681 0.833313 5.46673 1.30522 4.63352 2.14523C3.8003 2.98524 3.33221 4.12453 3.33221 5.31248C3.33221 6.50043 3.8003 7.63972 4.63352 8.47973C5.46673 9.31974 6.59681 9.79165 7.77516 9.79165ZM4.44295 11.7233C1.87437 12.4826 0 14.8762 0 17.7107C0 18.2846 0.46165 18.75 1.0309 18.75H14.5194C15.0887 18.75 15.5503 18.2846 15.5503 17.7107C15.5503 14.8762 13.6759 12.4826 11.1074 11.7233V13.501C12.0654 13.7494 12.7735 14.6277 12.7735 15.6706V17.0703C12.7735 17.3782 12.5236 17.6302 12.2181 17.6302H11.6627C11.3573 17.6302 11.1074 17.3782 11.1074 17.0703C11.1074 16.7624 11.3573 16.5104 11.6627 16.5104V15.6706C11.6627 15.0512 11.1664 14.5508 10.552 14.5508C9.93762 14.5508 9.44126 15.0512 9.44126 15.6706V16.5104C9.74671 16.5104 9.99663 16.7624 9.99663 17.0703C9.99663 17.3782 9.74671 17.6302 9.44126 17.6302H8.88589C8.58044 17.6302 8.33053 17.3782 8.33053 17.0703V15.6706C8.33053 14.6277 9.03862 13.7494 9.99663 13.501V11.5028C9.78837 11.4818 9.57663 11.4713 9.36143 11.4713H6.18889C5.97368 11.4713 5.76195 11.4818 5.55368 11.5028V13.7914C6.3555 14.0329 6.9421 14.7817 6.9421 15.6706C6.9421 16.7519 6.07087 17.6302 4.99832 17.6302C3.92576 17.6302 3.05453 16.7519 3.05453 15.6706C3.05453 14.7817 3.64113 14.0329 4.44295 13.7914V11.7233ZM4.99832 16.5104C5.21925 16.5104 5.43114 16.4219 5.58737 16.2644C5.7436 16.1069 5.83137 15.8933 5.83137 15.6706C5.83137 15.4478 5.7436 15.2342 5.58737 15.0767C5.43114 14.9192 5.21925 14.8307 4.99832 14.8307C4.77738 14.8307 4.56549 14.9192 4.40926 15.0767C4.25303 15.2342 4.16526 15.4478 4.16526 15.6706C4.16526 15.8933 4.25303 16.1069 4.40926 16.2644C4.56549 16.4219 4.77738 16.5104 4.99832 16.5104Z"
      fill="#2F3033"
    />
  </g>
  <defs>
    <clipPath id="clip0_63_8952">
      <rect width="15.5503" height="17.9167" fill="white" transform="translate(0 0.833313)" />
    </clipPath>
  </defs>
</svg>
