<svg width="37" height="36" viewBox="0 0 37 36" fill="none" xmlns="http://www.w3.org/2000/svg">
<g clip-path="url(#clip0_377_1181)">
<path
      d="M35 18L31.34 13.815L31.85 8.28L26.435 7.05L23.6 2.25L18.5 4.44L13.4 2.25L10.565 7.035L5.15 8.25L5.66 13.8L2 18L5.66 22.185L5.15 27.735L10.565 28.965L13.4 33.75L18.5 31.545L23.6 33.735L26.435 28.95L31.85 27.72L31.34 22.185L35 18ZM14.57 24.015L11 20.415C10.415 19.83 10.415 18.885 11 18.3L11.105 18.195C11.69 17.61 12.65 17.61 13.235 18.195L15.65 20.625L23.375 12.885C23.96 12.3 24.92 12.3 25.505 12.885L25.61 12.99C26.195 13.575 26.195 14.52 25.61 15.105L16.73 24.015C16.115 24.6 15.17 24.6 14.57 24.015Z"
      fill="#2196F3"
    />
</g>
<defs>
<clipPath id="clip0_377_1181">
<rect width="36" height="36" fill="white" transform="translate(0.5)" />
</clipPath>
</defs>
</svg>
