<svg width="14" height="14" viewBox="0 0 14 14" fill="none" xmlns="http://www.w3.org/2000/svg">
<g clip-path="url(#clip0_2086_1470)">
<path
      d="M1.78205 6.41659C2.01403 4.31807 3.48287 2.59233 5.44342 1.98452C4.67164 3.29857 4.19371 4.80633 4.10023 6.41659H1.78205ZM6.41213 0.609823C3.14385 0.906664 0.583344 3.65427 0.583344 6.99992C0.583344 10.3456 3.14383 13.0931 6.41213 13.39L6.41668 13.3958L6.66483 13.408C6.70438 13.41 6.74399 13.4117 6.78371 13.413C6.85552 13.4154 6.92762 13.4166 7.00001 13.4166C7.06925 13.4166 7.1382 13.4155 7.20686 13.4133C7.24974 13.412 7.29255 13.4102 7.33519 13.408L7.58334 13.3958L7.58789 13.39C10.8562 13.0931 13.4167 10.3456 13.4167 6.99992C13.4167 3.65427 10.8562 0.906669 7.58789 0.609823L7.58329 0.604083L7.33461 0.591827C7.27809 0.588922 7.22139 0.586752 7.16445 0.585317C7.10979 0.583946 7.05496 0.583252 7.00001 0.583252C6.94465 0.583252 6.88941 0.583952 6.8344 0.585346C6.77788 0.586781 6.72153 0.588945 6.66535 0.591827L6.41674 0.604083L6.41213 0.609823ZM7.00065 1.74992C7.99004 3.06689 8.61608 4.67142 8.73088 6.41659H5.26913C5.38391 4.67142 6.00998 3.06689 6.99937 1.74992H7.00001H7.00065ZM4.10023 7.58325C4.19369 9.19349 4.67162 10.7013 5.44339 12.0153C3.48285 11.4075 2.01403 9.68174 1.78205 7.58325H4.10023ZM6.99931 12.2499C6.00998 10.9329 5.3839 9.32841 5.26913 7.58325H8.73088C8.61614 9.32841 7.99004 10.9329 7.00071 12.2499H7.00001H6.99931ZM8.55664 12.0153C9.32839 10.7013 9.80631 9.19349 9.89982 7.58325H12.218C11.986 9.68174 10.5172 11.4075 8.55664 12.0153ZM9.89982 6.41659C9.80631 4.80633 9.32839 3.29857 8.55658 1.98452C10.5172 2.59233 11.986 4.31807 12.218 6.41659H9.89982Z"
      stroke="{{fill|default(currentColor)}}"
    />
</g>
<defs>
<clipPath id="clip0_2086_1470">
<rect width="14" height="14" fill="{{fill}}" />
</clipPath>
</defs>
</svg>
