<svg width="24" height="24" viewBox="0 0 24 24" fill="none" xmlns="http://www.w3.org/2000/svg">
<g clip-path="url(#clip0_710_3856)">
<mask id="mask0_710_3856" style="mask-type:luminance" maskUnits="userSpaceOnUse" x="0" y="0" width="24" height="24">
<path d="M24 0H0V24H24V0Z" fill="white"/>
</mask>
<g mask="url(#mask0_710_3856)">
<path d="M11.9999 14.9414C8.85872 14.9414 2.58813 16.5179 2.58813 19.6473V22.0002H21.4117V19.6473C21.4117 16.5179 15.1411 14.9414 11.9999 14.9414Z" fill="#5E5E62"/>
<path d="M6.98809 7.88235H17.0234C17.341 7.88235 17.5999 7.62353 17.5999 7.30588V7.28235C17.5999 6.96471 17.341 6.70588 17.0234 6.70588H16.7057C16.7057 4.96471 15.7528 3.47059 14.3528 2.64706V3.76471C14.3528 4.09412 14.094 4.35294 13.7646 4.35294C13.4352 4.35294 13.1763 4.09412 13.1763 3.76471V2.16471C12.7999 2.07059 12.4116 2 11.9999 2C11.5881 2 11.1999 2.07059 10.8234 2.16471V3.76471C10.8234 4.09412 10.5646 4.35294 10.2352 4.35294C9.90574 4.35294 9.64692 4.09412 9.64692 3.76471V2.64706C8.24692 3.47059 7.29397 4.96471 7.29397 6.70588H6.98809C6.67044 6.70588 6.41162 6.96471 6.41162 7.28235V7.31765C6.41162 7.62353 6.67044 7.88235 6.98809 7.88235Z" fill="#5E5E62"/>
<path d="M11.9999 12.588C14.1881 12.588 16.0117 11.0821 16.5411 9.05859H7.45874C7.98815 11.0821 9.81168 12.588 11.9999 12.588Z" fill="#5E5E62"/>
</g>
</g>
<defs>
<clipPath id="clip0_710_3856">
<rect width="24" height="24" fill="white"/>
</clipPath>
</defs>
</svg>
